<svg xmlns="http://www.w3.org/2000/svg" viewBox="-16.6 374.6 549 43.1" enable-background="new -16.6 374.6 549 43.1"><g fill="#fff"><path d="m7 382.9c-2.8-1.2-5.5-1.7-8.4-1.7-.8 0-1.6.1-2.3.3s-1.4.5-2.1 1-1.2 1-1.5 1.7c-.4.7-.6 1.7-.6 2.8 0 1.3.6 2.4 1.7 3.2 1.1.8 2.9 1.6 5.2 2.5 1.7.7 3.2 1.3 4.4 1.8 1.2.6 2.3 1.3 3.3 2.2 1.1 1 1.9 2.1 2.6 3.4.6 1.3 1 3 1 5 0 2.2-.4 4.1-1.2 5.7-.8 1.7-1.9 2.9-3.3 4-1.4 1-3.1 1.7-4.9 2.2-1.9.5-3.9.7-6 .7-1.9 0-3.5-.1-4.7-.3s-3.1-.7-5.2-1.2l-.9-.2.8-7.5c1.4.8 3 1.4 4.6 1.9s3.2.7 4.8.7c1.8 0 3.5-.5 5.1-1.4s2.3-2.2 2.3-4c0-1.6-.6-2.8-1.7-3.6s-3-1.7-5.5-2.7c-1.7-.6-3.1-1.3-4.2-1.8-1.2-.6-2.2-1.3-3.3-2.1-1.1-1-1.9-2-2.5-3.3-.6-1.3-1-2.9-1-4.8 0-2.2.4-4.1 1.2-5.8s1.9-2.9 3.3-4 2.9-1.7 4.6-2.2c1.7-.5 3.5-.7 5.5-.7 3.6 0 7 .5 9.9 1.5l-1 6.7"/><path d="m33.3 400.3l-15.1-25.1h9.8l9.8 17.4 10-17.4h8.8l-14.9 25.1v16.4h-8.3v-16.4h-.1"/><path d="m66.7 375.3h10.2l15.8 31h.1v-31h8v41.5h-10.2l-15.9-31.1h-.2v31.1h-8l.2-41.5"/><path d="m127 375.3h9.4l16.3 41.5h-9.2l-3.6-9.5h-16.8l-3.6 9.5h-8.6l16.1-41.5m4.6 8.3l-6.1 17.1h12.1l-6-17.1"/><path d="m162.7 375.3h10.5c2.4 0 4.7.2 6.7.6 2.1.4 3.9 1 5.5 2 1.6 1 2.9 2.2 3.8 3.9.9 1.7 1.3 3.6 1.3 6s-.4 4.4-1.2 6c-.8 1.7-1.9 3.1-3.3 4.1-1.4 1-3.1 1.8-5.1 2.3-1.9.5-4 .7-6.3.7h-3.5v15.8h-8.4v-41.4m8.3 19.2h2.9c2.4 0 4.3-.5 5.7-1.4 1.4-1 2.1-2.5 2.1-4.8 0-2.3-.7-3.9-2.2-4.9-1.5-1-3.3-1.5-5.7-1.5h-2.9l.1 12.6"/><path d="m224.1 382.9c-2.8-1.2-5.5-1.7-8.4-1.7-.8 0-1.6.1-2.3.3-.8.2-1.4.5-2.1 1-.6.5-1.2 1-1.6 1.7-.4.7-.6 1.7-.6 2.8 0 1.3.6 2.4 1.7 3.2 1.1.8 2.9 1.6 5.2 2.5 1.7.7 3.2 1.3 4.4 1.8 1.2.6 2.3 1.3 3.3 2.2 1.1 1 1.9 2.1 2.6 3.4.6 1.3 1 3 1 5 0 2.2-.4 4.1-1.2 5.7-.8 1.7-1.9 2.9-3.3 4-1.4 1-3.1 1.7-4.9 2.2-1.9.5-3.9.7-6 .7-1.9 0-3.5-.1-4.7-.3s-2.9-.6-5.1-1l-.9-.2.8-7.5c1.4.8 3 1.4 4.6 1.9 1.6.5 3.2.7 4.8.7 1.8 0 3.5-.5 5.1-1.4 1.6-1 2.3-2.2 2.3-4 0-1.6-.6-2.8-1.7-3.6-1.2-.8-3-1.7-5.5-2.7-1.7-.6-3.1-1.3-4.2-1.8-1.2-.6-2.2-1.3-3.3-2.1-1-.9-1.9-2-2.5-3.3-.6-1.3-1-2.9-1-4.8 0-2.2.4-4.1 1.2-5.8.8-1.7 1.9-2.9 3.3-4 1.3-1 2.9-1.7 4.6-2.2 1.7-.5 3.5-.7 5.5-.7 3.6 0 7 .5 9.9 1.5l-1 6.5"/><path d="M239.4,375.3h24.5v6.5h-16.2V392h14.8v6.5h-14.8v11.7H264v6.5h-24.6V375.3z"/><path d="m275.6 411.4c1.3.8 2.6 1.4 4.1 1.8 1.5.4 3.2.6 5 .6 2.8 0 5-.7 6.7-2.1s2.6-3.6 2.6-6.3c0-1.7-.7-3.2-2.1-4.3-1.4-1.2-3.6-2.5-6.4-4.1-1.7-.9-3-1.7-4.1-2.4-1.1-.7-2.2-1.5-3.2-2.4-1-.9-1.7-1.9-2.4-3s-.9-2.4-.9-3.8c0-1.6.3-3.1 1-4.4.7-1.3 1.6-2.5 2.8-3.4 2.5-1.9 5.6-2.9 9.4-2.9 1.2 0 2.5.1 4 .3 1.5.2 2.9.6 4.1 1l-.6 3.7c-.9-.5-2.1-.9-3.3-1.1-1.3-.2-2.7-.4-4.2-.4-1.2 0-2.2.2-3.3.4-1 .2-2 .6-2.9 1.2-.9.6-1.5 1.3-2.1 2.2-.5 1-.8 2.1-.8 3.3 0 1.7.6 3.1 2 4.2 1.3 1.1 3.4 2.5 6.2 3.9 1.7 1 3.2 1.7 4.3 2.5 1.1.7 2.1 1.5 3.2 2.5 1 1 1.8 2 2.5 3.3.6 1.3 1 2.7 1 4.3 0 2-.4 3.7-1.2 5.2-.8 1.5-1.8 2.8-3.2 3.7-1.3 1-2.8 1.7-4.4 2.1-1.6.5-3.3.7-4.9.7-1.9 0-3.6-.2-5.2-.5-1.6-.3-3-.8-4.2-1.3l.5-4.5"/><path d="m322.6 378.8h-12.3v-3.6h28.6v3.6h-12.3v37.9h-4.1l.1-37.9"/><path d="m381.8 402.2c0 2.9-.5 5.3-1.4 7.4-1 2-2.1 3.6-3.6 4.8-1.5 1.2-3.2 2-4.8 2.5s-3.4.7-5.2.7c-1.7 0-3.4-.2-5.2-.7s-3.3-1.3-4.8-2.5c-1.5-1.1-2.7-2.7-3.6-4.8-1-2-1.4-4.4-1.4-7.4v-27h4.1v27c0 3.5 1 6.3 2.9 8.5s4.6 3.2 8.1 3.2c3.5 0 6.2-1 8.1-3.2 1.9-2.1 2.9-4.9 2.9-8.5v-27h4.1l-.2 27"/><path d="m396 375.3h10.3c3.6 0 6.8.5 9.4 1.5 2.6 1 4.8 2.4 6.4 4.3 1.7 1.9 2.9 4 3.7 6.6.8 2.5 1.2 5.3 1.2 8.4 0 3.6-.6 6.9-1.7 9.5-1.2 2.7-2.8 4.8-4.9 6.5-2.1 1.7-4.6 2.9-7.5 3.6s-6.1 1.2-9.6 1.2h-7.3v-41.6m4.1 37.9h3.4c3 0 5.7-.3 8.1-1 2.4-.6 4.4-1.7 6.1-3.1 1.7-1.4 3-3.3 3.9-5.5.9-2.2 1.3-4.9 1.3-8s-.4-5.6-1.3-7.8c-.9-2.1-2.1-4-3.6-5.2-1.5-1.3-3.3-2.3-5.3-2.9-2.1-.6-4.3-.9-6.7-.9h-6l.1 34.4"/><path d="m441.4 375.3h4.1v41.5h-4.1v-41.5"/><path d="m461.6 387.7c.7-2.6 1.9-4.8 3.4-6.8 1.5-2 3.5-3.6 5.8-4.7 2.3-1.1 5-1.7 7.9-1.7 3 0 5.6.6 7.9 1.7s4.2 2.7 5.7 4.7c1.5 2 2.7 4.3 3.4 6.8.7 2.6 1.1 5.3 1.1 8.2 0 6.5-1.7 11.7-4.8 15.6-3.2 3.9-7.6 5.8-13.5 5.8-5.9 0-10.3-1.9-13.5-5.8-3.2-3.9-4.8-9.1-4.8-15.6.3-2.9.7-5.6 1.4-8.2m11-8.1c-1.8 1-3.3 2.4-4.4 4-1.2 1.7-2.1 3.6-2.6 5.8-.6 2.1-.9 4.3-.9 6.6s.3 4.4.9 6.6c.6 2.1 1.4 4 2.6 5.8 1.2 1.7 2.6 3.1 4.4 4s3.9 1.5 6.2 1.5c2.3 0 4.4-.5 6.2-1.5 1.8-1 3.3-2.4 4.4-4s2.1-3.6 2.6-5.8.9-4.3.9-6.6-.3-4.4-.9-6.6c-.6-2.1-1.4-4-2.6-5.8-1.2-1.7-2.6-3.1-4.4-4s-3.9-1.5-6.2-1.5c-2.3 0-4.5.5-6.2 1.5"/><path d="m509.8 411.4c1.3.8 2.6 1.4 4.1 1.8 1.5.4 3.2.6 5 .6 2.8 0 5-.7 6.7-2.1 1.7-1.4 2.6-3.6 2.6-6.3 0-1.7-.7-3.2-2.1-4.3-1.4-1.2-3.6-2.5-6.4-4.1-1.7-.9-3-1.7-4.1-2.4-1.1-.7-2.2-1.5-3.2-2.4-1-.9-1.7-1.9-2.4-3s-.9-2.4-.9-3.8c0-1.6.3-3.1 1-4.4.6-1.3 1.6-2.5 2.8-3.4 2.5-1.9 5.6-2.9 9.4-2.9 1.2 0 2.5.1 4 .3 1.5.2 2.9.6 4.1 1l-.6 3.7c-1-.5-2.1-.9-3.3-1.1-1.3-.2-2.7-.4-4.2-.4-1.2 0-2.2.2-3.3.4-1 .2-2 .6-2.9 1.2s-1.5 1.3-2.1 2.2c-.6 1-.8 2.1-.8 3.3 0 1.7.6 3.1 2 4.2 1.3 1.1 3.4 2.5 6.2 3.9 1.7 1 3.2 1.7 4.3 2.5 1.1.7 2.1 1.5 3.2 2.5s1.8 2 2.5 3.3c.6 1.3 1 2.7 1 4.3 0 2-.4 3.7-1.2 5.2s-1.8 2.8-3.2 3.7c-1.3 1-2.8 1.7-4.4 2.1-1.6.5-3.3.7-4.9.7-1.9 0-3.6-.2-5.2-.5-1.6-.3-3-.8-4.2-1.3l.5-4.5"/></g></svg>